<?xml version="1.0" encoding="UTF-8" standalone="no"?>
<!-- Created with Inkscape (http://www.inkscape.org/) -->

<svg
   xmlns:dc="http://purl.org/dc/elements/1.1/"
   xmlns:cc="http://creativecommons.org/ns#"
   xmlns:rdf="http://www.w3.org/1999/02/22-rdf-syntax-ns#"
   xmlns:svg="http://www.w3.org/2000/svg"
   xmlns="http://www.w3.org/2000/svg"
   xmlns:sodipodi="http://sodipodi.sourceforge.net/DTD/sodipodi-0.dtd"
   xmlns:inkscape="http://www.inkscape.org/namespaces/inkscape"
   width="120mm"
   height="22mm"
   viewBox="0 0 425.19691 77.952754"
   id="svg2"
   version="1.1"
   inkscape:version="0.91 r13725"
   sodipodi:docname="logo.svg"
   inkscape:export-filename="/home/nicolodavis/Desktop/boardgame.io/docs/logo.png"
   inkscape:export-xdpi="90.01561"
   inkscape:export-ydpi="90.01561">
  <defs
     id="defs4" />
  <sodipodi:namedview
     id="base"
     pagecolor="#ffffff"
     bordercolor="#666666"
     borderopacity="1.0"
     inkscape:pageopacity="0.0"
     inkscape:pageshadow="2"
     inkscape:zoom="1.979899"
     inkscape:cx="391.38413"
     inkscape:cy="47.066749"
     inkscape:document-units="px"
     inkscape:current-layer="layer2"
     showgrid="false"
     inkscape:showpageshadow="true"
     showborder="true"
     inkscape:window-width="2560"
     inkscape:window-height="1382"
     inkscape:window-x="0"
     inkscape:window-y="0"
     inkscape:window-maximized="1" />
  <metadata
     id="metadata7">
    <rdf:RDF>
      <cc:Work
         rdf:about="">
        <dc:format>image/svg+xml</dc:format>
        <dc:type
           rdf:resource="http://purl.org/dc/dcmitype/StillImage" />
        <dc:title />
      </cc:Work>
    </rdf:RDF>
  </metadata>
  <g
     inkscape:label="Layer 1"
     inkscape:groupmode="layer"
     id="layer1"
     style="display:inline"
     transform="translate(0,-974.40939)" />
  <g
     inkscape:groupmode="layer"
     id="layer2"
     inkscape:label="Layer 2"
     style="display:inline"
     transform="translate(0,-974.40939)">
    <g
       id="g4231"
       transform="translate(-4.0396787,0)">
      <path
         d="m 24.143444,1012.8243 q 5.934314,1.1762 5.934314,6.3085 0,3.8493 -2.993888,5.774 -2.993888,1.9246 -8.767815,1.9246 -3.475048,0 -6.682785,-0.1604 l 0.160386,-8.0193 -0.160386,-18.6049 8.340116,-0.053 q 4.009671,0 6.201625,1.7108 2.245416,1.6574 2.245416,4.7582 0,2.2989 -1.122708,3.9027 -1.122708,1.6039 -3.154275,2.4593 z m 0.05346,-5.8809 q 0,-1.9781 -1.283095,-2.8869 -1.283094,-0.9089 -4.116595,-0.9089 l -3.2612,0 -0.05346,8.2332 4.758143,0.1604 q 1.978105,-0.4277 2.940426,-1.4969 1.015783,-1.1228 1.015783,-3.1009 z m -5.39969,16.8407 q 3.475048,0 5.292766,-1.1762 1.87118,-1.2296 1.87118,-3.582 0,-1.9246 -1.283095,-2.9939 -1.283095,-1.0692 -3.902747,-1.4435 l -5.292766,0.053 -0.05346,3.6889 0.106924,5.2928 q 1.657331,0.1604 3.2612,0.1604 z"
         style="font-style:normal;font-variant:normal;font-weight:normal;font-stretch:normal;font-size:medium;line-height:150%;font-family:'Alegreya Sans SC';-inkscape-font-specification:'Alegreya Sans SC';text-align:end;letter-spacing:8.20263958px;word-spacing:0px;writing-mode:lr-tb;text-anchor:end;fill:#666666;fill-opacity:1;stroke:none;stroke-width:1px;stroke-linecap:butt;stroke-linejoin:miter;stroke-opacity:1"
         id="path4195"
         inkscape:connector-curvature="0" />
      <path
         d="m 56.001472,999.72603 q 5.827389,0 8.928202,3.42157 3.154274,3.4216 3.154274,9.6767 0,6.7897 -3.368123,10.5321 -3.314662,3.6889 -9.516287,3.6889 -5.773927,0 -8.928201,-3.4751 -3.154275,-3.5285 -3.154275,-9.9974 0,-6.6294 3.368124,-10.2113 3.368124,-3.63547 9.516286,-3.63547 z m -0.374236,3.36817 q -4.22352,0 -6.308549,2.4058 -2.031567,2.4058 -2.031567,7.5916 0,5.5601 2.031567,8.0728 2.031567,2.5127 6.201625,2.5127 4.276982,0 6.362011,-2.4592 2.08503,-2.4593 2.08503,-7.6986 0,-5.3997 -2.08503,-7.9124 -2.031566,-2.5127 -6.255087,-2.5127 z"
         style="font-style:normal;font-variant:normal;font-weight:normal;font-stretch:normal;font-size:medium;line-height:150%;font-family:'Alegreya Sans SC';-inkscape-font-specification:'Alegreya Sans SC';text-align:end;letter-spacing:8.20263958px;word-spacing:0px;writing-mode:lr-tb;text-anchor:end;fill:#666666;fill-opacity:1;stroke:none;stroke-width:1px;stroke-linecap:butt;stroke-linejoin:miter;stroke-opacity:1"
         id="path4197"
         inkscape:connector-curvature="0" />
      <path
         d="m 103.49722,1026.671 -4.009673,0 -0.641547,-2.8869 -1.39002,-3.9563 -6.362012,-0.053 -5.667002,0.053 -1.443481,3.7424 -0.748472,3.1008 -3.956209,0 10.264758,-26.6242 4.597757,0 9.355901,26.6242 z m -7.163948,-10.1044 -4.437369,-12.617 -0.320774,0 -4.865068,12.617 4.704681,0.053 4.91853,-0.053 z"
         style="font-style:normal;font-variant:normal;font-weight:normal;font-stretch:normal;font-size:medium;line-height:150%;font-family:'Alegreya Sans SC';-inkscape-font-specification:'Alegreya Sans SC';text-align:end;letter-spacing:8.20263958px;word-spacing:0px;writing-mode:lr-tb;text-anchor:end;fill:#666666;fill-opacity:1;stroke:none;stroke-width:1px;stroke-linecap:butt;stroke-linejoin:miter;stroke-opacity:1"
         id="path4199"
         inkscape:connector-curvature="0" />
      <path
         d="m 130.55701,1015.9251 q 3.2612,4.972 7.21741,9.7836 l -0.0535,0.5346 q -2.24542,0.695 -3.6889,0.802 l -0.69501,-0.4277 q -4.06313,-6.1482 -6.14816,-9.6767 l -5.02546,0.053 0,1.3366 0.10693,8.3401 -3.95621,0 0.16038,-8.0193 -0.16038,-18.6049 9.08859,-0.053 q 4.22352,0 6.46893,1.9781 2.29888,1.9782 2.29888,5.7205 0,2.7266 -1.49694,4.8651 -1.44349,2.1385 -4.1166,3.3681 z m -8.34012,-2.2454 5.02546,0.1604 q 4.75814,-1.3366 4.75814,-5.8274 0,-2.3524 -1.39002,-3.5285 -1.39002,-1.1762 -4.22352,-1.2831 l -4.11659,0.053 -0.0535,10.4252 z"
         style="font-style:normal;font-variant:normal;font-weight:normal;font-stretch:normal;font-size:medium;line-height:150%;font-family:'Alegreya Sans SC';-inkscape-font-specification:'Alegreya Sans SC';text-align:end;letter-spacing:8.20263958px;word-spacing:0px;writing-mode:lr-tb;text-anchor:end;fill:#666666;fill-opacity:1;stroke:none;stroke-width:1px;stroke-linecap:butt;stroke-linejoin:miter;stroke-opacity:1"
         id="path4201"
         inkscape:connector-curvature="0" />
      <path
         d="m 163.46424,999.83303 q 6.0947,0 9.30244,3.26117 3.26119,3.2612 3.26119,9.3559 0,7.0035 -3.52851,10.7459 -3.52851,3.7423 -10.10437,3.7423 -1.87118,0 -4.49083,-0.1069 -2.56619,-0.053 -4.86507,-0.1604 l 0.16039,-8.0193 -0.16039,-18.6049 10.42515,-0.21377 z m -0.4277,23.84407 q 4.27698,0 6.57586,-2.5662 2.35234,-2.6196 2.35234,-7.8589 0,-5.1324 -2.19195,-7.5917 -2.19196,-2.4592 -6.62933,-2.4592 -2.61965,0 -6.14816,0.2138 l -0.10692,14.916 0.0535,5.0255 q 1.55041,0.1069 3.2612,0.2138 1.71079,0.1069 2.8335,0.1069 z"
         style="font-style:normal;font-variant:normal;font-weight:normal;font-stretch:normal;font-size:medium;line-height:150%;font-family:'Alegreya Sans SC';-inkscape-font-specification:'Alegreya Sans SC';text-align:end;letter-spacing:8.20263958px;word-spacing:0px;writing-mode:lr-tb;text-anchor:end;fill:#666666;fill-opacity:1;stroke:none;stroke-width:1px;stroke-linecap:butt;stroke-linejoin:miter;stroke-opacity:1"
         id="path4203"
         inkscape:connector-curvature="0" />
      <path
         d="m 203.07095,999.77953 q 4.17006,0 8.39358,1.81767 l -1.33655,3.8493 -0.48116,0 q -1.97811,-1.2831 -3.63544,-1.7643 -1.65733,-0.5346 -3.58197,-0.5346 -4.5443,0 -6.84318,2.5662 -2.24541,2.5662 -2.24541,8.0193 0,5.2394 2.08503,7.5917 2.08503,2.2989 6.62932,2.2989 1.33656,0 2.56619,-0.2139 1.22963,-0.2673 2.99389,-0.9088 l 0,-2.6732 -0.0535,-3.7958 3.68889,-0.2673 0,9.6232 q -5.39969,1.6039 -9.3559,1.6039 -6.30855,0 -9.56974,-3.3681 -3.20774,-3.4216 -3.20774,-9.7302 0,-6.8431 3.63543,-10.4786 3.6889,-3.63537 10.31822,-3.63537 z"
         style="font-style:normal;font-variant:normal;font-weight:normal;font-stretch:normal;font-size:medium;line-height:150%;font-family:'Alegreya Sans SC';-inkscape-font-specification:'Alegreya Sans SC';text-align:end;letter-spacing:8.20263958px;word-spacing:0px;writing-mode:lr-tb;text-anchor:end;fill:#666666;fill-opacity:1;stroke:none;stroke-width:1px;stroke-linecap:butt;stroke-linejoin:miter;stroke-opacity:1"
         id="path4205"
         inkscape:connector-curvature="0" />
      <path
         d="m 248.66211,1026.671 -4.00967,0 -0.64155,-2.8869 -1.39002,-3.9563 -6.36201,-0.053 -5.667,0.053 -1.44348,3.7424 -0.74847,3.1008 -3.95621,0 10.26476,-26.6242 4.59775,0 9.3559,26.6242 z m -7.16394,-10.1044 -4.43737,-12.617 -0.32078,0 -4.86506,12.617 4.70468,0.053 4.91853,-0.053 z"
         style="font-style:normal;font-variant:normal;font-weight:normal;font-stretch:normal;font-size:medium;line-height:150%;font-family:'Alegreya Sans SC';-inkscape-font-specification:'Alegreya Sans SC';text-align:end;letter-spacing:8.20263958px;word-spacing:0px;writing-mode:lr-tb;text-anchor:end;fill:#666666;fill-opacity:1;stroke:none;stroke-width:1px;stroke-linecap:butt;stroke-linejoin:miter;stroke-opacity:1"
         id="path4207"
         inkscape:connector-curvature="0" />
      <path
         d="m 291.81404,1026.671 -3.58197,0 -0.58808,-8.1262 -1.44349,-12.2964 -0.32077,0 -7.64511,17.4287 -3.15427,0 -7.21741,-17.4287 -0.32077,0 -1.39002,11.9756 -0.74847,8.447 -3.42159,0 2.94043,-26.6242 4.65121,0 1.33656,4.0097 5.82739,14.3279 0.32077,0 6.0947,-14.5418 1.39002,-3.7958 4.5443,0 2.72657,26.6242 z"
         style="font-style:normal;font-variant:normal;font-weight:normal;font-stretch:normal;font-size:medium;line-height:150%;font-family:'Alegreya Sans SC';-inkscape-font-specification:'Alegreya Sans SC';text-align:end;letter-spacing:8.20263958px;word-spacing:0px;writing-mode:lr-tb;text-anchor:end;fill:#666666;fill-opacity:1;stroke:none;stroke-width:1px;stroke-linecap:butt;stroke-linejoin:miter;stroke-opacity:1"
         id="path4209"
         inkscape:connector-curvature="0" />
      <path
         d="m 324.48068,1023.2494 0.32078,0.3208 -0.37424,3.1008 -16.19907,0 0.16039,-8.0193 -0.16039,-18.6049 16.306,0 0.26731,0.3208 -0.32078,3.1008 -6.73624,-0.2139 -5.56008,0.053 -0.0535,8.0728 5.29276,0.053 4.65122,-0.1604 0.26731,0.3742 -0.32077,3.1543 -4.91853,-0.1604 -4.97199,0.054 -0.0535,3.6354 0.0535,5.0789 5.2393,0.053 7.11048,-0.2139 z"
         style="font-style:normal;font-variant:normal;font-weight:normal;font-stretch:normal;font-size:medium;line-height:150%;font-family:'Alegreya Sans SC';-inkscape-font-specification:'Alegreya Sans SC';text-align:end;letter-spacing:8.20263958px;word-spacing:0px;writing-mode:lr-tb;text-anchor:end;fill:#666666;fill-opacity:1;stroke:none;stroke-width:1px;stroke-linecap:butt;stroke-linejoin:miter;stroke-opacity:1"
         id="path4211"
         inkscape:connector-curvature="0" />
      <path
         d="m 341.10614,1021.9663 q 1.06925,0 1.7108,0.6416 0.64154,0.6415 0.64154,1.7642 0,1.1762 -0.69501,1.8712 -0.64154,0.695 -1.81771,0.695 -1.12271,0 -1.76426,-0.6415 -0.58808,-0.6416 -0.58808,-1.8177 0,-1.1227 0.64154,-1.8177 0.69501,-0.6951 1.87118,-0.6951 z"
         style="font-style:normal;font-variant:normal;font-weight:normal;font-stretch:normal;font-size:medium;line-height:150%;font-family:'Alegreya Sans SC';-inkscape-font-specification:'Alegreya Sans SC';text-align:end;letter-spacing:8.20263958px;word-spacing:0px;writing-mode:lr-tb;text-anchor:end;fill:#666666;fill-opacity:1;stroke:none;stroke-width:1px;stroke-linecap:butt;stroke-linejoin:miter;stroke-opacity:1"
         id="path4213"
         inkscape:connector-curvature="0" />
      <g
         transform="translate(8.0000008,0)"
         id="g4226">
        <path
           sodipodi:type="star"
           style="display:inline;opacity:1;fill:#373748;fill-opacity:1;stroke:#000000;stroke-width:3.30000043;stroke-miterlimit:4;stroke-dasharray:none;stroke-opacity:1"
           id="path4148"
           sodipodi:sides="6"
           sodipodi:cx="380.06992"
           sodipodi:cy="1013.3858"
           sodipodi:r1="36.861588"
           sodipodi:r2="31.234234"
           sodipodi:arg1="1.5707963"
           sodipodi:arg2="2.0943951"
           inkscape:flatsided="true"
           inkscape:rounded="0"
           inkscape:randomized="0"
           d="m 380.06992,1050.2474 -31.92307,-18.4308 -10e-6,-36.86159 31.92307,-18.43079 31.92308,18.43079 0,36.86159 z"
           inkscape:transform-center-x="3.9904108e-05"
           inkscape:transform-center-y="-7.25241e-05" />
        <path
           inkscape:connector-curvature="0"
           id="path4215"
           style="font-style:normal;font-variant:normal;font-weight:normal;font-stretch:normal;font-size:medium;line-height:150%;font-family:'Julius Sans One';-inkscape-font-specification:'Julius Sans One, Normal';text-align:end;letter-spacing:8.20263958px;word-spacing:0px;writing-mode:lr-tb;text-anchor:end;fill:#ffffff;fill-opacity:1;stroke:none;stroke-width:1px;stroke-linecap:butt;stroke-linejoin:miter;stroke-opacity:1"
           d="m 363.98503,1018.3309 0.10692,8.3401 -3.95621,0 0.16039,-8.0193 -0.16039,-18.6049 4.00967,0 -0.16038,18.2841 z" />
        <path
           inkscape:connector-curvature="0"
           id="path4217"
           style="font-style:normal;font-variant:normal;font-weight:normal;font-stretch:normal;font-size:medium;line-height:150%;font-family:'Julius Sans One';-inkscape-font-specification:'Julius Sans One, Normal';text-align:end;letter-spacing:8.20263958px;word-spacing:0px;writing-mode:lr-tb;text-anchor:end;fill:#ffffff;fill-opacity:1;stroke:none;stroke-width:1px;stroke-linecap:butt;stroke-linejoin:miter;stroke-opacity:1"
           d="m 391.76489,999.72603 q 5.82739,0 8.9282,3.42157 3.15428,3.4216 3.15428,9.6767 0,6.7897 -3.36813,10.5321 -3.31466,3.6889 -9.51628,3.6889 -5.77393,0 -8.9282,-3.4751 -3.15428,-3.5285 -3.15428,-9.9974 0,-6.6294 3.36813,-10.2113 3.36812,-3.63547 9.51628,-3.63547 z m -0.37423,3.36817 q -4.22352,0 -6.30855,2.4058 -2.03157,2.4058 -2.03157,7.5916 0,5.5601 2.03157,8.0728 2.03156,2.5127 6.20162,2.5127 4.27698,0 6.36201,-2.4592 2.08503,-2.4593 2.08503,-7.6986 0,-5.3997 -2.08503,-7.9124 -2.03156,-2.5127 -6.25508,-2.5127 z" />
      </g>
    </g>
  </g>
</svg>
