<!-- Created with Inkscape (http://www.inkscape.org/) -->
<svg xmlns:rdf="http://www.w3.org/1999/02/22-rdf-syntax-ns#" xmlns="http://www.w3.org/2000/svg" height="22mm" width="120mm" version="1.1" xmlns:cc="http://creativecommons.org/ns#" xmlns:dc="http://purl.org/dc/elements/1.1/" viewBox="0 0 425.19691 77.952754">
<metadata>
<rdf:RDF>
<cc:Work rdf:about="">
<dc:format>image/svg+xml</dc:format>
<dc:type rdf:resource="http://purl.org/dc/dcmitype/StillImage"/>
<dc:title/>
</cc:Work>
</rdf:RDF>
</metadata>
<g transform="translate(0 -974.41)">
<g transform="translate(-4.0397)">
<g fill="#666">
<path d="m24.143 1012.8q5.9343 1.1762 5.9343 6.3085 0 3.8493-2.9939 5.774-2.9939 1.9246-8.7678 1.9246-3.475 0-6.6828-0.1604l0.16039-8.0193-0.16039-18.605 8.3401-0.053q4.0097 0 6.2016 1.7108 2.2454 1.6574 2.2454 4.7582 0 2.2989-1.1227 3.9027-1.1227 1.6039-3.1543 2.4593zm0.05346-5.8809q0-1.9781-1.2831-2.8869-1.2831-0.9089-4.1166-0.9089h-3.2612l-0.05346 8.2332 4.7581 0.1604q1.9781-0.4277 2.9404-1.4969 1.0158-1.1228 1.0158-3.1009zm-5.3997 16.841q3.475 0 5.2928-1.1762 1.8712-1.2296 1.8712-3.582 0-1.9246-1.2831-2.9939-1.2831-1.0692-3.9027-1.4435l-5.2928 0.053-0.05346 3.6889 0.10692 5.2928q1.6573 0.1604 3.2612 0.1604z"/>
<path d="m56.001 999.73q5.8274 0 8.9282 3.4216 3.1543 3.4216 3.1543 9.6767 0 6.7897-3.3681 10.532-3.3147 3.6889-9.5163 3.6889-5.7739 0-8.9282-3.4751-3.1543-3.5285-3.1543-9.9974 0-6.6294 3.3681-10.211 3.3681-3.6355 9.5163-3.6355zm-0.37424 3.3682q-4.2235 0-6.3085 2.4058-2.0316 2.4058-2.0316 7.5916 0 5.5601 2.0316 8.0728t6.2016 2.5127q4.277 0 6.362-2.4592 2.085-2.4593 2.085-7.6986 0-5.3997-2.085-7.9124-2.0316-2.5127-6.2551-2.5127z"/>
<path d="m103.5 1026.7h-4.0097l-0.64155-2.8869-1.39-3.9563-6.362-0.053-5.667 0.053-1.4435 3.7424-0.74847 3.1008h-3.9562l10.265-26.624h4.5978l9.3559 26.624zm-7.1639-10.104-4.4374-12.617h-0.32077l-4.8651 12.617 4.7047 0.053 4.9185-0.053z"/>
<path d="m130.56 1015.9q3.2612 4.972 7.2174 9.7836l-0.0535 0.5346q-2.2454 0.695-3.6889 0.802l-0.69501-0.4277q-4.0631-6.1482-6.1482-9.6767l-5.0255 0.053v1.3366l0.10693 8.3401h-3.9562l0.16038-8.0193-0.16038-18.605 9.0886-0.053q4.2235 0 6.4689 1.9781 2.2989 1.9782 2.2989 5.7205 0 2.7266-1.4969 4.8651-1.4435 2.1385-4.1166 3.3681zm-8.3401-2.2454 5.0255 0.1604q4.7581-1.3366 4.7581-5.8274 0-2.3524-1.39-3.5285-1.39-1.1762-4.2235-1.2831l-4.1166 0.053-0.0535 10.425z"/>
<path d="m163.46 999.83q6.0947 0 9.3024 3.2612 3.2612 3.2612 3.2612 9.3559 0 7.0035-3.5285 10.746-3.5285 3.7423-10.104 3.7423-1.8712 0-4.4908-0.1069-2.5662-0.053-4.8651-0.1604l0.16039-8.0193-0.16039-18.605 10.425-0.21377zm-0.4277 23.844q4.277 0 6.5759-2.5662 2.3523-2.6196 2.3523-7.8589 0-5.1324-2.192-7.5917-2.192-2.4592-6.6293-2.4592-2.6196 0-6.1482 0.2138l-0.10692 14.916 0.0535 5.0255q1.5504 0.1069 3.2612 0.2138t2.8335 0.1069z"/>
<path d="m203.07 999.78q4.1701 0 8.3936 1.8177l-1.3366 3.8493h-0.48116q-1.9781-1.2831-3.6354-1.7643-1.6573-0.5346-3.582-0.5346-4.5443 0-6.8432 2.5662-2.2454 2.5662-2.2454 8.0193 0 5.2394 2.085 7.5917 2.085 2.2989 6.6293 2.2989 1.3366 0 2.5662-0.2139 1.2296-0.2673 2.9939-0.9088v-2.6732l-0.0535-3.7958 3.6889-0.2673v9.6232q-5.3997 1.6039-9.3559 1.6039-6.3086 0-9.5697-3.3681-3.2077-3.4216-3.2077-9.7302 0-6.8431 3.6354-10.479 3.6889-3.6354 10.318-3.6354z"/>
<path d="m248.66 1026.7h-4.0097l-0.64155-2.8869-1.39-3.9563-6.362-0.053-5.667 0.053-1.4435 3.7424-0.74847 3.1008h-3.9562l10.265-26.624h4.5978l9.3559 26.624zm-7.1639-10.104-4.4374-12.617h-0.32078l-4.8651 12.617 4.7047 0.053 4.9185-0.053z"/>
<path d="m291.81 1026.7h-3.582l-0.58808-8.1262-1.4435-12.296h-0.32077l-7.6451 17.429h-3.1543l-7.2174-17.429h-0.32077l-1.39 11.976-0.74847 8.447h-3.4216l2.9404-26.624h4.6512l1.3366 4.0097 5.8274 14.328h0.32077l6.0947-14.542 1.39-3.7958h4.5443l2.7266 26.624z"/>
<path d="m324.48 1023.2 0.32078 0.3208-0.37424 3.1008h-16.199l0.16039-8.0193-0.16039-18.605h16.306l0.26731 0.3208-0.32078 3.1008-6.7362-0.2139-5.5601 0.053-0.0535 8.0728 5.2928 0.053 4.6512-0.1604 0.26731 0.3742-0.32077 3.1543-4.9185-0.1604-4.972 0.054-0.0535 3.6354 0.0535 5.0789 5.2393 0.053 7.1105-0.2139z"/>
<path d="m341.11 1022q1.0692 0 1.7108 0.6416 0.64154 0.6415 0.64154 1.7642 0 1.1762-0.69501 1.8712-0.64154 0.695-1.8177 0.695-1.1227 0-1.7643-0.6415-0.58808-0.6416-0.58808-1.8177 0-1.1227 0.64154-1.8177 0.69501-0.6951 1.8712-0.6951z"/>
</g>
<g transform="translate(8)">
<path stroke="#000" stroke-width="3.3" fill="#373748" d="m380.07 1050.2-31.923-18.431-0.00001-36.862 31.923-18.431 31.923 18.431v36.862z"/>
<path d="m363.99 1018.3 0.10692 8.3401h-3.9562l0.16039-8.0193-0.16039-18.605h4.0097l-0.16038 18.284z" fill="#fff"/>
<path d="m391.76 999.73q5.8274 0 8.9282 3.4216 3.1543 3.4216 3.1543 9.6767 0 6.7897-3.3681 10.532-3.3147 3.6889-9.5163 3.6889-5.7739 0-8.9282-3.4751-3.1543-3.5285-3.1543-9.9974 0-6.6294 3.3681-10.211 3.3681-3.6355 9.5163-3.6355zm-0.37423 3.3682q-4.2235 0-6.3086 2.4058-2.0316 2.4058-2.0316 7.5916 0 5.5601 2.0316 8.0728t6.2016 2.5127q4.277 0 6.362-2.4592 2.085-2.4593 2.085-7.6986 0-5.3997-2.085-7.9124-2.0316-2.5127-6.2551-2.5127z" fill="#fff"/>
</g>
</g>
</g>
</svg>
